HIERARCHY
ROOT SpineBase
{
  OFFSET 0.000000 0.000000 0.000000
  CHANNELS 6 Xposition Yposition Zposition Zrotation Xrotation Yrotation
  JOINT SpineMid
  {
    OFFSET 0.000000 30.440963 -0.000000
    CHANNELS 3 Zrotation Xrotation Yrotation
    JOINT SpineShoulder
    {
      OFFSET -0.119692 22.530663 -0.850976
      CHANNELS 3 Zrotation Xrotation Yrotation
      JOINT Neck
      {
        OFFSET -0.083456 7.437002 -0.610174
        CHANNELS 3 Zrotation Xrotation Yrotation
        JOINT Head
        {
          OFFSET -2.643220 15.408916 1.622802
          CHANNELS 3 Zrotation Xrotation Yrotation
          End Site
          {
            OFFSET 0 0 0
          }
        }
      }
      JOINT ShoulderLeft
      {
        OFFSET -17.308924 -4.678894 8.528734
        CHANNELS 3 Zrotation Xrotation Yrotation
        JOINT ElbowLeft
        {
          OFFSET -1.930348 -26.630226 -0.694941
          CHANNELS 3 Zrotation Xrotation Yrotation
          JOINT WristLeft
          {
            OFFSET 0.516284 -20.500457 -7.898833
            CHANNELS 3 Zrotation Xrotation Yrotation
            JOINT HandLeft
            {
              OFFSET 2.233132 -5.376025 -1.639341
              CHANNELS 3 Zrotation Xrotation Yrotation
              JOINT HandTipLeft
              {
                OFFSET 1.280699 -9.928788 -2.274002
                CHANNELS 3 Zrotation Xrotation Yrotation
                End Site
                {
                  OFFSET 0 0 0
                }
              }
              JOINT ThumbLeft
              {
                OFFSET -3.926941 -0.514337 -2.636531
                CHANNELS 3 Zrotation Xrotation Yrotation
                End Site
                {
                  OFFSET 0 0 0
                }
              }
            }
          }
        }
      }
      JOINT ShoulderRight
      {
        OFFSET 14.555460 -3.281359 -7.912806
        CHANNELS 3 Zrotation Xrotation Yrotation
        JOINT ElbowRight
        {
          OFFSET 5.631162 -24.441790 -3.161220
          CHANNELS 3 Zrotation Xrotation Yrotation
          JOINT WristRight
          {
            OFFSET -2.080169 -22.072562 -6.552693
            CHANNELS 3 Zrotation Xrotation Yrotation
            JOINT HandRight
            {
              OFFSET -2.125903 -6.500324 -0.436507
              CHANNELS 3 Zrotation Xrotation Yrotation
              JOINT HandTipRight
              {
                OFFSET -0.936531 -8.622386 -1.498045
                CHANNELS 3 Zrotation Xrotation Yrotation
                End Site
                {
                  OFFSET 0 0 0
                }
              }
              JOINT ThumbRight
              {
                OFFSET -3.413121 1.309036 1.061778
                CHANNELS 3 Zrotation Xrotation Yrotation
                End Site
                {
                  OFFSET 0 0 0
                }
              }
            }
          }
        }
      }
    }
  }
  JOINT HipLeft
  {
    OFFSET -7.617799 -0.010564 -0.653513
    CHANNELS 3 Zrotation Xrotation Yrotation
    JOINT KneeLeft
    {
      OFFSET 0.590041 -28.936847 -1.383563
      CHANNELS 3 Zrotation Xrotation Yrotation
      JOINT AnkleLeft
      {
        OFFSET 4.148260 -36.566346 5.817704
        CHANNELS 3 Zrotation Xrotation Yrotation
        JOINT FootLeft
        {
          OFFSET -0.861712 -7.633500 -6.836514
          CHANNELS 3 Zrotation Xrotation Yrotation
          End Site
          {
            OFFSET 0 0 0
          }
        }
      }
    }
  }
  JOINT HipRight
  {
    OFFSET 6.923495 1.089058 -6.602013
    CHANNELS 3 Zrotation Xrotation Yrotation
    JOINT KneeRight
    {
      OFFSET 7.817773 -27.411754 -3.973257
      CHANNELS 3 Zrotation Xrotation Yrotation
      JOINT AnkleRight
      {
        OFFSET 4.362806 -36.960638 11.575268
        CHANNELS 3 Zrotation Xrotation Yrotation
        JOINT FootRight
        {
          OFFSET -1.454813 -8.565854 -5.589914
          CHANNELS 3 Zrotation Xrotation Yrotation
          End Site
          {
            OFFSET 0 0 0
          }
        }
      }
    }
  }
}
MOTION
Frames: 6
Frame Time: 0.033333
39.964823 74.104262 382.983072 -0.154043 -2.608301 10.925323 -0.163954 -0.342701 -10.952860 -0.046578 -0.228894 -0.034331 -4.283937 -0.523767 0.002348 0.000000 0.000000 0.000000 -29.558785 2.400458 2.353867 32.983340 27.065442 -1.829493 4.049987 -3.549966 8.654147 7.984440 3.414794 -5.861980 0.000000 0.000000 0.000000 0.000000 0.000000 0.000000 32.419689 6.088796 -5.807526 -9.660692 16.722679 -9.091270 -17.191950 4.091100 -4.788116 -15.876519 -3.300754 4.316475 0.000000 0.000000 0.000000 0.000000 0.000000 0.000000 -10.292817 19.236490 -7.902020 16.979483 -21.932688 1.543536 -7.388326 12.897180 4.165868 0.000000 0.000000 0.000000 -3.177755 2.701786 -10.373488 3.787317 0.526019 -0.412367 -5.282550 2.280212 3.102251 0.000000 0.000000 0.000000
39.703853 73.857482 382.785090 -0.244781 -3.476456 7.707364 -0.148314 -0.393417 -7.746726 -0.061961 -0.227179 -0.044129 -5.772056 -0.811725 0.049337 0.000000 0.000000 0.000000 -38.933915 3.873801 3.896606 39.004619 29.914807 0.446780 6.410854 -1.710944 10.568658 8.075544 -0.774892 -6.958560 0.000000 0.000000 0.000000 0.000000 0.000000 0.000000 46.337757 8.018179 -9.445576 -14.408928 16.108365 -12.694363 -21.386123 8.302880 -7.485858 -13.698906 -1.461959 5.066300 0.000000 0.000000 0.000000 0.000000 0.000000 0.000000 -13.663006 22.038744 -3.392043 18.379964 -23.321566 1.674057 -6.619788 15.106560 4.147489 0.000000 0.000000 0.000000 -3.074863 4.074623 -6.883035 3.829201 -0.196511 -0.599145 -5.308238 2.066811 3.148631 0.000000 0.000000 0.000000
39.319271 73.615112 382.540287 -0.239310 -4.508310 4.605063 -0.165679 -0.432067 -4.651119 -0.094791 -0.244825 -0.052801 -7.726184 -0.952401 0.192171 0.000000 0.000000 0.000000 -49.722257 5.280605 6.146567 46.670376 31.574532 2.809819 5.823955 -0.306996 12.280756 16.100762 -9.612838 -6.725880 0.000000 0.000000 0.000000 0.000000 0.000000 0.000000 62.233990 8.412576 -14.069101 -19.008690 17.783939 -18.371941 -27.610076 9.197404 -11.428483 -9.525464 1.292364 6.743849 0.000000 0.000000 0.000000 0.000000 0.000000 0.000000 -17.151841 23.826589 1.054851 17.923296 -22.825412 1.050056 -4.277777 14.255227 4.018342 0.000000 0.000000 0.000000 -3.318950 5.694903 -3.444240 3.975139 -0.970338 -0.812429 -4.985466 1.453329 3.023804 0.000000 0.000000 0.000000
38.658652 73.301023 382.109404 -0.441583 -5.620580 1.881539 -0.202268 -0.407727 -1.952029 -0.132869 -0.247458 -0.071462 -9.154364 -0.984571 0.359369 0.000000 0.000000 0.000000 -59.570069 5.113763 8.159963 53.247820 34.623397 5.242512 6.187584 2.060836 14.539976 15.799060 -13.476030 -7.430412 0.000000 0.000000 0.000000 0.000000 0.000000 0.000000 78.050785 6.258540 -18.206255 -21.676322 22.232537 -26.898277 -31.999096 8.370983 -17.401870 -4.301316 7.227482 9.354344 0.000000 0.000000 0.000000 0.000000 0.000000 0.000000 -20.314369 24.604959 5.023928 16.674546 -21.041250 0.084023 -0.718010 10.512526 3.594799 0.000000 0.000000 0.000000 -3.069912 7.078746 -0.589948 4.987294 -2.364607 -0.548364 -5.854791 2.040761 2.584500 0.000000 0.000000 0.000000
37.804854 72.922313 381.548702 -0.624626 -6.857218 -0.413882 -0.178220 -0.396182 0.315752 -0.121962 -0.267612 -0.085325 -10.918811 -0.359952 0.761137 0.000000 0.000000 0.000000 -67.789407 4.462888 10.015750 61.129761 37.391369 5.791148 0.489556 3.632485 16.395411 14.087659 -12.929830 -9.386456 0.000000 0.000000 0.000000 0.000000 0.000000 0.000000 90.239203 0.974919 -19.854855 -16.909602 32.860757 -43.211389 -36.569725 4.069327 -27.784514 -0.521856 8.412696 15.012283 0.000000 0.000000 0.000000 0.000000 0.000000 0.000000 -23.105902 24.873936 8.438515 14.941085 -18.450026 -0.935699 2.258780 6.324360 4.110074 0.000000 0.000000 0.000000 -2.793620 8.529634 1.767073 5.493272 -3.232169 -0.306776 -5.919905 1.619515 1.996454 0.000000 0.000000 0.000000
36.780521 72.449773 380.923416 -0.811008 -8.250003 -2.178553 -0.195397 -0.311347 2.048685 -0.135645 -0.250914 -0.101011 -12.803981 0.754511 1.407495 0.000000 0.000000 0.000000 -74.101828 2.642044 11.029812 67.495544 40.686042 5.701069 -8.901035 6.159788 18.618653 15.853094 -14.170863 -11.100586 0.000000 0.000000 0.000000 0.000000 0.000000 0.000000 101.027778 -4.976958 -19.992918 -6.532851 45.417886 -70.565073 -33.168728 -10.530550 -33.082117 -1.967387 12.284154 17.365322 0.000000 0.000000 0.000000 0.000000 0.000000 0.000000 -25.028417 24.910984 11.063499 12.218616 -14.734573 -1.960826 5.301777 1.890470 5.090611 0.000000 0.000000 0.000000 -2.344472 10.060867 3.479958 5.875797 -4.072033 0.017894 -6.152053 1.226011 1.497494 0.000000 0.000000 0.000000
